<svg width="57" height="30" viewBox="0 0 57 30" fill="none" xmlns="http://www.w3.org/2000/svg">
<rect width="57" height="30" rx="2" fill="#FF5A5F"/>
<path d="M20.256 17L22.784 10.976H22.832L25.352 17H24.464L22.576 12.192L23.128 11.832L21.016 17H20.256ZM21.736 14.808H23.888L24.144 15.48H21.512L21.736 14.808ZM26.2574 13.688H27.0014V17H26.2574V13.688ZM26.2014 12.488C26.2014 12.3707 26.2467 12.272 26.3374 12.192C26.4334 12.112 26.5374 12.072 26.6494 12.072C26.7614 12.072 26.86 12.112 26.9454 12.192C27.036 12.272 27.0814 12.3707 27.0814 12.488C27.0814 12.6107 27.036 12.712 26.9454 12.792C26.86 12.8667 26.7614 12.904 26.6494 12.904C26.5374 12.904 26.4334 12.864 26.3374 12.784C26.2467 12.704 26.2014 12.6053 26.2014 12.488ZM28.9526 13.688L29.0246 14.648L28.9846 14.52C29.07 14.3173 29.1926 14.1467 29.3526 14.008C29.518 13.864 29.6886 13.7547 29.8646 13.68C30.046 13.6 30.2033 13.56 30.3366 13.56L30.2966 14.296C30.046 14.28 29.8246 14.328 29.6326 14.44C29.446 14.552 29.2966 14.7013 29.1846 14.888C29.078 15.0747 29.0246 15.2747 29.0246 15.488V17H28.2886V13.688H28.9526ZM33.3124 17.08C33.0084 17.08 32.7391 17.0133 32.5044 16.88C32.2751 16.7467 32.0911 16.5787 31.9524 16.376L32.0404 16.144V17H31.2964V10.808H32.0324V14.448L32.0084 14.168C32.1418 13.9867 32.3311 13.84 32.5764 13.728C32.8271 13.6107 33.1044 13.552 33.4084 13.552C33.7071 13.552 33.9791 13.624 34.2244 13.768C34.4698 13.912 34.6644 14.1147 34.8084 14.376C34.9578 14.632 35.0324 14.9387 35.0324 15.296C35.0324 15.6693 34.9524 15.9893 34.7924 16.256C34.6378 16.5227 34.4298 16.728 34.1684 16.872C33.9071 17.0107 33.6218 17.08 33.3124 17.08ZM33.1604 16.448C33.3738 16.448 33.5658 16.3973 33.7364 16.296C33.9071 16.1947 34.0404 16.0587 34.1364 15.888C34.2324 15.712 34.2804 15.512 34.2804 15.288C34.2804 15.0747 34.2298 14.8827 34.1284 14.712C34.0324 14.536 33.8991 14.3973 33.7284 14.296C33.5631 14.1947 33.3738 14.144 33.1604 14.144C32.9791 14.144 32.8111 14.1787 32.6564 14.248C32.5018 14.3173 32.3711 14.4133 32.2644 14.536C32.1578 14.6533 32.0831 14.792 32.0404 14.952V15.616C32.0831 15.776 32.1551 15.92 32.2564 16.048C32.3578 16.1707 32.4858 16.2693 32.6404 16.344C32.7951 16.4133 32.9684 16.448 33.1604 16.448ZM36.7026 13.688L36.7666 14.496L36.7346 14.368C36.8413 14.1227 37.0146 13.928 37.2546 13.784C37.4946 13.6347 37.772 13.56 38.0866 13.56C38.4013 13.56 38.6573 13.6533 38.8546 13.84C39.0573 14.0213 39.1613 14.2587 39.1666 14.552V17H38.4146V14.816C38.4093 14.6347 38.356 14.488 38.2546 14.376C38.1586 14.2587 38.0066 14.2 37.7986 14.2C37.6066 14.2 37.4333 14.2533 37.2786 14.36C37.124 14.4667 37.0013 14.6133 36.9106 14.8C36.8253 14.9867 36.7826 15.2027 36.7826 15.448V17H36.0386V13.688H36.7026ZM42.4765 17.08C42.1725 17.08 41.9032 17.0133 41.6685 16.88C41.4392 16.7467 41.2552 16.5787 41.1165 16.376L41.2045 16.144V17H40.4605V10.808H41.1965V14.448L41.1725 14.168C41.3058 13.9867 41.4952 13.84 41.7405 13.728C41.9912 13.6107 42.2685 13.552 42.5725 13.552C42.8712 13.552 43.1432 13.624 43.3885 13.768C43.6338 13.912 43.8285 14.1147 43.9725 14.376C44.1218 14.632 44.1965 14.9387 44.1965 15.296C44.1965 15.6693 44.1165 15.9893 43.9565 16.256C43.8018 16.5227 43.5938 16.728 43.3325 16.872C43.0712 17.0107 42.7858 17.08 42.4765 17.08ZM42.3245 16.448C42.5378 16.448 42.7298 16.3973 42.9005 16.296C43.0712 16.1947 43.2045 16.0587 43.3005 15.888C43.3965 15.712 43.4445 15.512 43.4445 15.288C43.4445 15.0747 43.3938 14.8827 43.2925 14.712C43.1965 14.536 43.0632 14.3973 42.8925 14.296C42.7272 14.1947 42.5378 14.144 42.3245 14.144C42.1432 14.144 41.9752 14.1787 41.8205 14.248C41.6658 14.3173 41.5352 14.4133 41.4285 14.536C41.3218 14.6533 41.2472 14.792 41.2045 14.952V15.616C41.2472 15.776 41.3192 15.92 41.4205 16.048C41.5218 16.1707 41.6498 16.2693 41.8045 16.344C41.9592 16.4133 42.1325 16.448 42.3245 16.448Z" fill="white"/>
<g clip-path="url(#clip0_39_14)">
<path d="M14.5 15.8297C14.1063 15.3344 13.8735 14.9016 13.7969 14.5297C13.4438 13.1547 15.5563 13.1547 15.2047 14.5297C15.1188 14.9094 14.8875 15.3422 14.5016 15.8297H14.5ZM16.6594 16.9734C16.0016 17.2594 15.3516 16.8031 14.7953 16.1844C16.4188 14.1516 15.5156 13.0594 14.5 13.0594C13.6422 13.0594 13.1688 13.7859 13.3547 14.6297C13.4625 15.0859 13.7485 15.6047 14.2047 16.1844C13.6969 16.7484 13.2578 17.0078 12.8735 17.0422C12.0922 17.1578 11.4813 16.4 11.7594 15.6188C11.9953 15.0063 13.5047 12.0063 13.5703 11.8438C13.8172 11.3734 13.9703 10.9469 14.4985 10.9469C15.0031 10.9469 15.1766 11.3516 15.4422 11.8828C16.0047 12.9859 16.8391 14.6563 17.236 15.6188C17.4422 16.1359 17.2141 16.7328 16.6578 16.9719L16.6594 16.9734ZM17.3938 14.8469C15.3797 10.5609 15.2672 10.5 14.5 10.5C13.7891 10.5 13.486 10.9953 13.1766 11.6375C11.5188 14.9547 11.3578 15.425 11.3438 15.4656C10.95 16.5484 11.761 17.5 12.7438 17.5C13.0828 17.5 13.6906 17.4047 14.5 16.525C15.4172 17.5219 16.0828 17.5 16.2563 17.5C17.2391 17.5016 18.0516 16.5484 17.6563 15.4656C17.6563 15.4047 17.3938 14.8578 17.3938 14.8469Z" fill="white"/>
</g>
<path d="M43 0H55C56.1046 0 57 0.895431 57 2V14L50 7L43 0Z" fill="#B39F9F"/>
<path d="M51.6444 2.65165L49.5874 4.70869L49.3463 4.46763L49.8405 1.73161L49.8204 1.71152L48.2053 3.32662L47.9562 3.07752L50.0132 1.02048L50.2543 1.26154L49.7601 4.0056L49.7802 4.02569L51.3993 2.40657L51.6444 2.65165ZM50.0858 5.20713L52.1428 3.15009L53.3843 4.39154L53.1633 4.61252L52.171 3.62016L51.4759 4.31521L52.404 5.24329L52.183 5.46426L51.2549 4.53618L50.5559 5.23525L51.5643 6.24368L51.3433 6.46465L50.0858 5.20713ZM52.1499 7.2712L53.6444 4.65169L53.8975 4.9048L52.6521 7.01005L52.6722 7.03014L54.7854 5.7927L55.0667 6.07394L53.8292 8.18722L53.8493 8.20731L55.9546 6.96184L56.2077 7.21495L53.5882 8.70952L53.3311 8.45239L54.5163 6.35919L54.5002 6.34312L52.407 7.52833L52.1499 7.2712Z" fill="#474747"/>
<defs>
<clipPath id="clip0_39_14">
<rect width="7" height="8" fill="white" transform="translate(11 10)"/>
</clipPath>
</defs>
</svg>
