<svg width="42" height="42" viewBox="0 0 42 42" fill="none" xmlns="http://www.w3.org/2000/svg">
<g clip-path="url(#clip0_35_6)">
<circle cx="21" cy="21" r="21" fill="#B39F9F"/>
<path d="M26.8936 25.8818C26.8936 27.9098 26.2043 29.4365 24.8257 30.4619C23.4471 31.4873 21.4875 32 18.9468 32H11.8374V9.69775H18.5537C19.488 9.69775 20.4051 9.77751 21.3052 9.93701C22.2052 10.0851 23.0085 10.37 23.7148 10.7915C24.4326 11.2131 25.0137 11.8055 25.458 12.5688C25.9023 13.3208 26.1245 14.3006 26.1245 15.5083C26.1245 16.6362 25.834 17.6673 25.2529 18.6016C24.6833 19.5358 23.8174 20.208 22.6553 20.6182C24.0794 21.0625 25.139 21.6834 25.834 22.481C26.5404 23.2785 26.8936 24.4121 26.8936 25.8818ZM22.6211 15.9697C22.6211 15.3203 22.4958 14.7905 22.2451 14.3804C22.0059 13.9702 21.6925 13.6569 21.3052 13.4404C20.9178 13.2126 20.4849 13.0645 20.0063 12.9961C19.5278 12.9277 19.0436 12.8936 18.5537 12.8936H15.375V19.0459H18.5537C19.0436 19.0459 19.5278 19.0117 20.0063 18.9434C20.4849 18.875 20.9178 18.7326 21.3052 18.5161C21.6925 18.2882 22.0059 17.9692 22.2451 17.5591C22.4958 17.1489 22.6211 16.6191 22.6211 15.9697ZM23.3901 25.5229C23.3901 24.4064 22.9971 23.5804 22.2109 23.0449C21.4362 22.5094 20.3481 22.2417 18.9468 22.2417H15.375V28.8213H18.9468C20.3481 28.8213 21.4362 28.5535 22.2109 28.0181C22.9971 27.4712 23.3901 26.6395 23.3901 25.5229Z" fill="#003580"/>
<circle cx="32.3125" cy="28.75" r="2.8125" fill="#3186FF"/>
</g>
<defs>
<clipPath id="clip0_35_6">
<rect width="42" height="42" fill="white"/>
</clipPath>
</defs>
</svg>
