<svg width="33" height="40" viewBox="0 0 33 40" fill="none" xmlns="http://www.w3.org/2000/svg">
<g clip-path="url(#clip0_23_2)">
<path d="M21.784 10.608V13.584C21.784 16.624 20.664 18.56 18.424 19.392C20.856 20.128 22.072 22.096 22.072 25.296V28.512C22.072 33.504 19.416 36 14.104 36H3.592V3.12H13.816C19.128 3.12 21.784 5.616 21.784 10.608ZM12.952 8.016H9.352V16.896H12.952C15.064 16.896 16.12 15.904 16.12 13.92V10.944C16.12 8.992 15.064 8.016 12.952 8.016ZM16.408 28.176V24.96C16.408 22.976 15.352 21.984 13.24 21.984H9.352V31.104H13.24C15.352 31.104 16.408 30.128 16.408 28.176Z" fill="#003580"/>
<circle cx="28" cy="35" r="3" fill="#003580"/>
</g>
<defs>
<clipPath id="clip0_23_2">
<rect width="33" height="40" fill="white"/>
</clipPath>
</defs>
</svg>
