<svg width="69" height="10" viewBox="0 0 69 10" fill="none" xmlns="http://www.w3.org/2000/svg">
<path d="M0.854 8V3.1H2.898C3.42533 3.1 3.83833 3.20733 4.137 3.422C4.43567 3.63667 4.585 3.947 4.585 4.353C4.585 4.619 4.522 4.843 4.396 5.025C4.27 5.207 4.095 5.34467 3.871 5.438C3.65167 5.52667 3.40433 5.571 3.129 5.571L3.255 5.431C3.591 5.431 3.878 5.48 4.116 5.578C4.354 5.676 4.53367 5.81833 4.655 6.005C4.781 6.19167 4.844 6.425 4.844 6.705C4.844 7.11567 4.69467 7.43533 4.396 7.664C4.09733 7.888 3.64467 8 3.038 8H0.854ZM1.211 7.692H3.038C3.50933 7.692 3.86867 7.61267 4.116 7.454C4.36333 7.29067 4.487 7.03167 4.487 6.677C4.487 6.327 4.36333 6.07267 4.116 5.914C3.86867 5.75067 3.50933 5.669 3.038 5.669H1.169V5.361H2.884C3.30867 5.361 3.63767 5.27933 3.871 5.116C4.10433 4.95267 4.221 4.70767 4.221 4.381C4.221 4.059 4.10433 3.81633 3.871 3.653C3.63767 3.48967 3.30867 3.408 2.884 3.408H1.211V7.692ZM7.43367 8.028C7.08367 8.028 6.77101 7.94867 6.49567 7.79C6.22501 7.63133 6.00801 7.412 5.84467 7.132C5.68601 6.852 5.60667 6.53233 5.60667 6.173C5.60667 5.809 5.68601 5.48933 5.84467 5.214C6.00801 4.934 6.22501 4.71467 6.49567 4.556C6.77101 4.39733 7.08367 4.318 7.43367 4.318C7.78367 4.318 8.09634 4.39733 8.37167 4.556C8.64701 4.71467 8.86401 4.934 9.02267 5.214C9.18134 5.48933 9.26067 5.809 9.26067 6.173C9.26067 6.53233 9.18134 6.852 9.02267 7.132C8.86401 7.412 8.64701 7.63133 8.37167 7.79C8.09634 7.94867 7.78367 8.028 7.43367 8.028ZM7.43367 7.713C7.71367 7.713 7.96567 7.65 8.18967 7.524C8.41367 7.39333 8.58867 7.21133 8.71467 6.978C8.84067 6.74467 8.90367 6.47633 8.90367 6.173C8.90367 5.865 8.84067 5.59667 8.71467 5.368C8.58867 5.13467 8.41367 4.955 8.18967 4.829C7.96567 4.69833 7.71367 4.633 7.43367 4.633C7.15367 4.633 6.90167 4.69833 6.67767 4.829C6.45834 4.955 6.28334 5.13467 6.15267 5.368C6.02667 5.59667 5.96367 5.865 5.96367 6.173C5.96367 6.47633 6.02667 6.74467 6.15267 6.978C6.28334 7.21133 6.45834 7.39333 6.67767 7.524C6.90167 7.65 7.15367 7.713 7.43367 7.713ZM11.7745 8.028C11.4245 8.028 11.1118 7.94867 10.8365 7.79C10.5658 7.63133 10.3488 7.412 10.1855 7.132C10.0268 6.852 9.94749 6.53233 9.94749 6.173C9.94749 5.809 10.0268 5.48933 10.1855 5.214C10.3488 4.934 10.5658 4.71467 10.8365 4.556C11.1118 4.39733 11.4245 4.318 11.7745 4.318C12.1245 4.318 12.4372 4.39733 12.7125 4.556C12.9878 4.71467 13.2048 4.934 13.3635 5.214C13.5222 5.48933 13.6015 5.809 13.6015 6.173C13.6015 6.53233 13.5222 6.852 13.3635 7.132C13.2048 7.412 12.9878 7.63133 12.7125 7.79C12.4372 7.94867 12.1245 8.028 11.7745 8.028ZM11.7745 7.713C12.0545 7.713 12.3065 7.65 12.5305 7.524C12.7545 7.39333 12.9295 7.21133 13.0555 6.978C13.1815 6.74467 13.2445 6.47633 13.2445 6.173C13.2445 5.865 13.1815 5.59667 13.0555 5.368C12.9295 5.13467 12.7545 4.955 12.5305 4.829C12.3065 4.69833 12.0545 4.633 11.7745 4.633C11.4945 4.633 11.2425 4.69833 11.0185 4.829C10.7992 4.955 10.6242 5.13467 10.4935 5.368C10.3675 5.59667 10.3045 5.865 10.3045 6.173C10.3045 6.47633 10.3675 6.74467 10.4935 6.978C10.6242 7.21133 10.7992 7.39333 11.0185 7.524C11.2425 7.65 11.4945 7.713 11.7745 7.713ZM14.9533 6.992L14.9603 6.551L17.3753 4.346H17.8233L16.2203 5.851L16.0103 6.026L14.9533 6.992ZM14.6873 8V2.806H15.0373V8H14.6873ZM17.5433 8L15.9473 5.998L16.1853 5.739L17.9773 8H17.5433ZM18.8025 8V4.346H19.1525V8H18.8025ZM18.9775 3.457C18.8982 3.457 18.8305 3.429 18.7745 3.373C18.7185 3.317 18.6905 3.25167 18.6905 3.177C18.6905 3.09767 18.7185 3.03 18.7745 2.974C18.8305 2.918 18.8982 2.89 18.9775 2.89C19.0615 2.89 19.1292 2.918 19.1805 2.974C19.2365 3.02533 19.2645 3.09067 19.2645 3.17C19.2645 3.24933 19.2365 3.317 19.1805 3.373C19.1292 3.429 19.0615 3.457 18.9775 3.457ZM22.4127 4.318C22.7114 4.318 22.9704 4.37633 23.1897 4.493C23.4137 4.605 23.5864 4.77767 23.7077 5.011C23.8337 5.23967 23.8967 5.52433 23.8967 5.865V8H23.5467V5.893C23.5467 5.48233 23.4417 5.16967 23.2317 4.955C23.0264 4.74033 22.7371 4.633 22.3637 4.633C22.0791 4.633 21.8317 4.69133 21.6217 4.808C21.4117 4.92467 21.2507 5.088 21.1387 5.298C21.0314 5.508 20.9777 5.76 20.9777 6.054V8H20.6277V4.346H20.9637V5.361L20.9147 5.249C21.0267 4.95967 21.2111 4.73333 21.4677 4.57C21.7244 4.402 22.0394 4.318 22.4127 4.318ZM26.8567 9.386C26.5254 9.386 26.2104 9.33467 25.9117 9.232C25.613 9.12933 25.3704 8.987 25.1837 8.805L25.3727 8.539C25.5547 8.707 25.7717 8.83767 26.0237 8.931C26.2804 9.02433 26.5557 9.071 26.8497 9.071C27.3397 9.071 27.699 8.95667 27.9277 8.728C28.161 8.49933 28.2777 8.14 28.2777 7.65V6.635L28.3477 6.089L28.2917 5.543V4.346H28.6277V7.608C28.6277 8.21933 28.4784 8.66733 28.1797 8.952C27.8857 9.24133 27.4447 9.386 26.8567 9.386ZM26.7587 7.867C26.4134 7.867 26.103 7.79233 25.8277 7.643C25.557 7.489 25.34 7.279 25.1767 7.013C25.018 6.74233 24.9387 6.43433 24.9387 6.089C24.9387 5.739 25.018 5.431 25.1767 5.165C25.34 4.899 25.557 4.69133 25.8277 4.542C26.103 4.39267 26.4134 4.318 26.7587 4.318C27.09 4.318 27.3864 4.39033 27.6477 4.535C27.9137 4.675 28.1237 4.878 28.2777 5.144C28.4317 5.40533 28.5087 5.72033 28.5087 6.089C28.5087 6.453 28.4317 6.768 28.2777 7.034C28.1237 7.3 27.9137 7.50533 27.6477 7.65C27.3864 7.79467 27.09 7.867 26.7587 7.867ZM26.7867 7.552C27.0807 7.552 27.3397 7.49133 27.5637 7.37C27.7877 7.244 27.9627 7.07133 28.0887 6.852C28.2194 6.628 28.2847 6.37367 28.2847 6.089C28.2847 5.79967 28.2194 5.54533 28.0887 5.326C27.9627 5.10667 27.7877 4.93633 27.5637 4.815C27.3397 4.69367 27.0807 4.633 26.7867 4.633C26.502 4.633 26.2454 4.69367 26.0167 4.815C25.7927 4.93633 25.6154 5.10667 25.4847 5.326C25.3587 5.54533 25.2957 5.79967 25.2957 6.089C25.2957 6.37367 25.3587 6.628 25.4847 6.852C25.6154 7.07133 25.7927 7.244 26.0167 7.37C26.2454 7.49133 26.502 7.552 26.7867 7.552Z" fill="#003580"/>
<path d="M30.0672 8.028C29.9879 8.028 29.9179 8 29.8572 7.944C29.8012 7.88333 29.7732 7.811 29.7732 7.727C29.7732 7.643 29.8012 7.573 29.8572 7.517C29.9179 7.461 29.9879 7.433 30.0672 7.433C30.1465 7.433 30.2142 7.461 30.2702 7.517C30.3309 7.573 30.3612 7.643 30.3612 7.727C30.3612 7.811 30.3309 7.88333 30.2702 7.944C30.2142 8 30.1465 8.028 30.0672 8.028Z" fill="#3186FF"/>
<path d="M32.8433 8.028C32.4887 8.028 32.1713 7.94867 31.8913 7.79C31.616 7.63133 31.3967 7.412 31.2333 7.132C31.0747 6.852 30.9953 6.53233 30.9953 6.173C30.9953 5.809 31.0747 5.487 31.2333 5.207C31.3967 4.927 31.616 4.71 31.8913 4.556C32.1713 4.39733 32.4887 4.318 32.8433 4.318C33.1373 4.318 33.4033 4.374 33.6413 4.486C33.884 4.598 34.08 4.766 34.2293 4.99L33.9703 5.179C33.8397 4.99233 33.6763 4.85467 33.4803 4.766C33.2843 4.67733 33.072 4.633 32.8433 4.633C32.5587 4.633 32.302 4.69833 32.0733 4.829C31.8493 4.955 31.672 5.13467 31.5413 5.368C31.4153 5.59667 31.3523 5.865 31.3523 6.173C31.3523 6.481 31.4153 6.75167 31.5413 6.985C31.672 7.21367 31.8493 7.39333 32.0733 7.524C32.302 7.65 32.5587 7.713 32.8433 7.713C33.072 7.713 33.2843 7.66867 33.4803 7.58C33.6763 7.49133 33.8397 7.35367 33.9703 7.167L34.2293 7.356C34.08 7.58 33.884 7.748 33.6413 7.86C33.4033 7.972 33.1373 8.028 32.8433 8.028ZM36.6436 8.028C36.2936 8.028 35.981 7.94867 35.7056 7.79C35.435 7.63133 35.218 7.412 35.0546 7.132C34.896 6.852 34.8166 6.53233 34.8166 6.173C34.8166 5.809 34.896 5.48933 35.0546 5.214C35.218 4.934 35.435 4.71467 35.7056 4.556C35.981 4.39733 36.2936 4.318 36.6436 4.318C36.9936 4.318 37.3063 4.39733 37.5816 4.556C37.857 4.71467 38.074 4.934 38.2326 5.214C38.3913 5.48933 38.4706 5.809 38.4706 6.173C38.4706 6.53233 38.3913 6.852 38.2326 7.132C38.074 7.412 37.857 7.63133 37.5816 7.79C37.3063 7.94867 36.9936 8.028 36.6436 8.028ZM36.6436 7.713C36.9236 7.713 37.1756 7.65 37.3996 7.524C37.6236 7.39333 37.7986 7.21133 37.9246 6.978C38.0506 6.74467 38.1136 6.47633 38.1136 6.173C38.1136 5.865 38.0506 5.59667 37.9246 5.368C37.7986 5.13467 37.6236 4.955 37.3996 4.829C37.1756 4.69833 36.9236 4.633 36.6436 4.633C36.3636 4.633 36.1116 4.69833 35.8876 4.829C35.6683 4.955 35.4933 5.13467 35.3626 5.368C35.2366 5.59667 35.1736 5.865 35.1736 6.173C35.1736 6.47633 35.2366 6.74467 35.3626 6.978C35.4933 7.21133 35.6683 7.39333 35.8876 7.524C36.1116 7.65 36.3636 7.713 36.6436 7.713ZM44.1065 4.318C44.4005 4.318 44.6548 4.37633 44.8695 4.493C45.0888 4.605 45.2591 4.77767 45.3805 5.011C45.5018 5.23967 45.5625 5.52433 45.5625 5.865V8H45.2125V5.893C45.2125 5.48233 45.1121 5.16967 44.9115 4.955C44.7108 4.74033 44.4308 4.633 44.0715 4.633C43.7961 4.633 43.5581 4.69133 43.3575 4.808C43.1568 4.92467 43.0028 5.088 42.8955 5.298C42.7881 5.508 42.7345 5.76 42.7345 6.054V8H42.3845V5.893C42.3845 5.48233 42.2841 5.16967 42.0835 4.955C41.8828 4.74033 41.6028 4.633 41.2435 4.633C40.9681 4.633 40.7301 4.69133 40.5295 4.808C40.3288 4.92467 40.1748 5.088 40.0675 5.298C39.9601 5.508 39.9065 5.76 39.9065 6.054V8H39.5565V4.346H39.8925V5.354L39.8435 5.242C39.9508 4.95733 40.1305 4.73333 40.3825 4.57C40.6345 4.402 40.9378 4.318 41.2925 4.318C41.6565 4.318 41.9621 4.41133 42.2095 4.598C42.4615 4.78 42.6201 5.053 42.6855 5.417L42.5665 5.368C42.6645 5.05533 42.8488 4.80333 43.1195 4.612C43.3901 4.416 43.7191 4.318 44.1065 4.318Z" fill="black"/>
<path d="M52.128 2.36C52.6187 2.36 53.0293 2.472 53.36 2.696C53.696 2.92 53.9493 3.24267 54.12 3.664C54.2907 4.08 54.376 4.58133 54.376 5.168C54.376 5.79733 54.272 6.32533 54.064 6.752C53.856 7.17867 53.5653 7.50133 53.192 7.72C52.8187 7.93333 52.384 8.04 51.888 8.04C51.648 8.04 51.4187 8.01867 51.2 7.976C50.9867 7.93333 50.792 7.85867 50.616 7.752L50.784 7.424C50.928 7.51467 51.096 7.58133 51.288 7.624C51.48 7.66133 51.68 7.68 51.888 7.68C52.5173 7.68 53.0213 7.47733 53.4 7.072C53.7787 6.66133 53.968 6.048 53.968 5.232C53.968 5.104 53.96 4.94667 53.944 4.76C53.928 4.57333 53.8933 4.38933 53.84 4.208L53.984 4.248C53.9467 4.55733 53.8427 4.82133 53.672 5.04C53.5013 5.25333 53.2827 5.41867 53.016 5.536C52.7547 5.65333 52.4613 5.712 52.136 5.712C51.7627 5.712 51.4347 5.64533 51.152 5.512C50.8747 5.37333 50.656 5.17867 50.496 4.928C50.3413 4.67733 50.264 4.384 50.264 4.048C50.264 3.70667 50.344 3.41067 50.504 3.16C50.6693 2.904 50.8907 2.70667 51.168 2.568C51.4507 2.42933 51.7707 2.36 52.128 2.36ZM52.144 2.712C51.8507 2.712 51.5947 2.768 51.376 2.88C51.1573 2.98667 50.984 3.13867 50.856 3.336C50.7333 3.53333 50.672 3.768 50.672 4.04C50.672 4.44 50.808 4.76 51.08 5C51.352 5.24 51.7227 5.36 52.192 5.36C52.496 5.36 52.7653 5.30133 53 5.184C53.2347 5.06667 53.416 4.90667 53.544 4.704C53.6773 4.50133 53.744 4.27467 53.744 4.024C53.744 3.80533 53.6827 3.59733 53.56 3.4C53.4373 3.19733 53.2587 3.032 53.024 2.904C52.7893 2.776 52.496 2.712 52.144 2.712ZM55.8466 8.032C55.7559 8.032 55.6759 8 55.6066 7.936C55.5426 7.86667 55.5106 7.784 55.5106 7.688C55.5106 7.592 55.5426 7.512 55.6066 7.448C55.6759 7.384 55.7559 7.352 55.8466 7.352C55.9372 7.352 56.0146 7.384 56.0786 7.448C56.1479 7.512 56.1826 7.592 56.1826 7.688C56.1826 7.784 56.1479 7.86667 56.0786 7.936C56.0146 8 55.9372 8.032 55.8466 8.032ZM58.3142 8L60.7782 2.592L60.9222 2.768H57.3462L57.5542 2.576V3.84H57.1542V2.4H61.1702V2.688L58.7622 8H58.3142Z" fill="black"/>
<path d="M65.3098 2.58541C65.3697 2.40115 65.6303 2.40115 65.6902 2.58541L66.2409 4.28024C66.2677 4.36265 66.3445 4.41844 66.4311 4.41844H68.2132C68.4069 4.41844 68.4875 4.66636 68.3307 4.78024L66.889 5.82771C66.8189 5.87864 66.7896 5.96891 66.8164 6.05132L67.367 7.74615C67.4269 7.93041 67.216 8.08364 67.0593 7.96976L65.6176 6.92229C65.5475 6.87136 65.4525 6.87136 65.3824 6.92229L63.9407 7.96976C63.784 8.08364 63.5731 7.93041 63.633 7.74615L64.1836 6.05132C64.2104 5.96891 64.1811 5.87864 64.111 5.82771L62.6693 4.78024C62.5125 4.66636 62.5931 4.41844 62.7868 4.41844H64.5689C64.6555 4.41844 64.7323 4.36265 64.7591 4.28024L65.3098 2.58541Z" fill="#FFEB3B"/>
</svg>
