<svg width="57" height="30" viewBox="0 0 57 30" fill="none" xmlns="http://www.w3.org/2000/svg">
<rect width="57" height="30" rx="2" fill="#003580"/>
<path d="M7.32 11.216C7.90133 11.216 8.35733 11.336 8.688 11.576C9.024 11.8107 9.192 12.1787 9.192 12.68C9.192 12.984 9.12267 13.248 8.984 13.472C8.84533 13.696 8.65067 13.872 8.4 14C8.15467 14.128 7.864 14.2 7.528 14.216L7.416 13.816C7.80533 13.8267 8.15467 13.896 8.464 14.024C8.77333 14.152 9.01867 14.3307 9.2 14.56C9.38133 14.7893 9.472 15.0613 9.472 15.376C9.472 15.664 9.41867 15.912 9.312 16.12C9.20533 16.3227 9.06133 16.4907 8.88 16.624C8.69867 16.752 8.49333 16.848 8.264 16.912C8.03467 16.9707 7.79733 17 7.552 17H5.832V11.216H7.32ZM7.48 13.752C7.8 13.752 8.032 13.664 8.176 13.488C8.32 13.3067 8.392 13.088 8.392 12.832C8.392 12.528 8.29867 12.3067 8.112 12.168C7.92533 12.0293 7.67467 11.96 7.36 11.96H6.608V13.752H7.48ZM7.512 16.28C7.72533 16.28 7.92 16.248 8.096 16.184C8.27733 16.12 8.41867 16.0213 8.52 15.888C8.62667 15.7547 8.68 15.5867 8.68 15.384C8.68 15.16 8.61867 14.984 8.496 14.856C8.37867 14.728 8.22667 14.6373 8.04 14.584C7.85333 14.5253 7.66133 14.496 7.464 14.496H6.608V16.28H7.512ZM10.3053 15.312C10.3053 14.9813 10.3826 14.6827 10.5373 14.416C10.6973 14.1493 10.916 13.9387 11.1933 13.784C11.4706 13.6293 11.7853 13.552 12.1373 13.552C12.5 13.552 12.8173 13.6293 13.0893 13.784C13.3613 13.9387 13.572 14.1493 13.7213 14.416C13.8706 14.6827 13.9453 14.9813 13.9453 15.312C13.9453 15.6427 13.8706 15.944 13.7213 16.216C13.572 16.4827 13.3586 16.6933 13.0813 16.848C12.8093 17.0027 12.492 17.08 12.1293 17.08C11.7773 17.08 11.4626 17.008 11.1853 16.864C10.9133 16.7147 10.6973 16.5093 10.5373 16.248C10.3826 15.9813 10.3053 15.6693 10.3053 15.312ZM11.0493 15.32C11.0493 15.5333 11.0973 15.728 11.1933 15.904C11.2893 16.0747 11.4173 16.2107 11.5773 16.312C11.7426 16.4133 11.924 16.464 12.1213 16.464C12.3293 16.464 12.5133 16.4133 12.6733 16.312C12.8386 16.2107 12.9666 16.0747 13.0573 15.904C13.148 15.728 13.1933 15.5333 13.1933 15.32C13.1933 15.1067 13.148 14.9147 13.0573 14.744C12.9666 14.568 12.8386 14.4293 12.6733 14.328C12.5133 14.2213 12.3293 14.168 12.1213 14.168C11.9186 14.168 11.7346 14.2213 11.5693 14.328C11.4093 14.4347 11.2813 14.576 11.1853 14.752C11.0946 14.9227 11.0493 15.112 11.0493 15.32ZM14.6647 15.312C14.6647 14.9813 14.742 14.6827 14.8967 14.416C15.0567 14.1493 15.2754 13.9387 15.5527 13.784C15.83 13.6293 16.1447 13.552 16.4967 13.552C16.8594 13.552 17.1767 13.6293 17.4487 13.784C17.7207 13.9387 17.9314 14.1493 18.0807 14.416C18.23 14.6827 18.3047 14.9813 18.3047 15.312C18.3047 15.6427 18.23 15.944 18.0807 16.216C17.9314 16.4827 17.718 16.6933 17.4407 16.848C17.1687 17.0027 16.8514 17.08 16.4887 17.08C16.1367 17.08 15.822 17.008 15.5447 16.864C15.2727 16.7147 15.0567 16.5093 14.8967 16.248C14.742 15.9813 14.6647 15.6693 14.6647 15.312ZM15.4087 15.32C15.4087 15.5333 15.4567 15.728 15.5527 15.904C15.6487 16.0747 15.7767 16.2107 15.9367 16.312C16.102 16.4133 16.2834 16.464 16.4807 16.464C16.6887 16.464 16.8727 16.4133 17.0327 16.312C17.198 16.2107 17.326 16.0747 17.4167 15.904C17.5074 15.728 17.5527 15.5333 17.5527 15.32C17.5527 15.1067 17.5074 14.9147 17.4167 14.744C17.326 14.568 17.198 14.4293 17.0327 14.328C16.8727 14.2213 16.6887 14.168 16.4807 14.168C16.278 14.168 16.094 14.2213 15.9287 14.328C15.7687 14.4347 15.6407 14.576 15.5447 14.752C15.454 14.9227 15.4087 15.112 15.4087 15.32ZM19.3121 17V10.808H20.0561V17H19.3121ZM20.8561 14.8L22.3761 17H21.5041L20.3601 15.216L20.8561 14.8ZM19.8241 15.944L19.7521 15.232L21.7601 13.616L22.2161 14.008L19.8241 15.944ZM26.4917 13.688L26.5557 14.496L26.5237 14.368C26.6304 14.1227 26.8037 13.928 27.0437 13.784C27.2837 13.6347 27.561 13.56 27.8757 13.56C28.1904 13.56 28.4464 13.6533 28.6437 13.84C28.8464 14.0213 28.9504 14.2587 28.9557 14.552V17H28.2037V14.816C28.1984 14.6347 28.145 14.488 28.0437 14.376C27.9477 14.2587 27.7957 14.2 27.5877 14.2C27.3957 14.2 27.2224 14.2533 27.0677 14.36C26.913 14.4667 26.7904 14.6133 26.6997 14.8C26.6144 14.9867 26.5717 15.2027 26.5717 15.448V17H25.8277V13.688H26.4917ZM29.9616 15.312C29.9616 14.9813 30.0389 14.6827 30.1936 14.416C30.3536 14.1493 30.5722 13.9387 30.8496 13.784C31.1269 13.6293 31.4416 13.552 31.7936 13.552C32.1562 13.552 32.4736 13.6293 32.7456 13.784C33.0176 13.9387 33.2282 14.1493 33.3776 14.416C33.5269 14.6827 33.6016 14.9813 33.6016 15.312C33.6016 15.6427 33.5269 15.944 33.3776 16.216C33.2282 16.4827 33.0149 16.6933 32.7376 16.848C32.4656 17.0027 32.1482 17.08 31.7856 17.08C31.4336 17.08 31.1189 17.008 30.8416 16.864C30.5696 16.7147 30.3536 16.5093 30.1936 16.248C30.0389 15.9813 29.9616 15.6693 29.9616 15.312ZM30.7056 15.32C30.7056 15.5333 30.7536 15.728 30.8496 15.904C30.9456 16.0747 31.0736 16.2107 31.2336 16.312C31.3989 16.4133 31.5802 16.464 31.7776 16.464C31.9856 16.464 32.1696 16.4133 32.3296 16.312C32.4949 16.2107 32.6229 16.0747 32.7136 15.904C32.8042 15.728 32.8496 15.5333 32.8496 15.32C32.8496 15.1067 32.8042 14.9147 32.7136 14.744C32.6229 14.568 32.4949 14.4293 32.3296 14.328C32.1696 14.2213 31.9856 14.168 31.7776 14.168C31.5749 14.168 31.3909 14.2213 31.2256 14.328C31.0656 14.4347 30.9376 14.576 30.8416 14.752C30.7509 14.9227 30.7056 15.112 30.7056 15.32ZM36.6274 13.688L37.6034 15.92L37.4594 15.936L38.3714 13.688H39.0994L37.5794 17.2L36.5154 14.928L35.5474 17.2L34.0114 13.688H34.7394L35.7714 16.024L35.5154 15.976L36.2514 14.264L35.9874 13.688H36.6274Z" fill="#B39F9F"/>
<path d="M51.7902 15.5297C52.0692 15.2367 52.0692 14.7609 51.7902 14.468L48.2188 10.718C47.9397 10.425 47.4866 10.425 47.2076 10.718C46.9286 11.0109 46.9286 11.4867 47.2076 11.7797L49.5625 14.25H42.7143C42.3192 14.25 42 14.5851 42 15C42 15.4148 42.3192 15.75 42.7143 15.75H49.5603L47.2098 18.2203C46.9308 18.5133 46.9308 18.9891 47.2098 19.282C47.4888 19.575 47.942 19.575 48.221 19.282L51.7924 15.532L51.7902 15.5297Z" fill="#B39F9F"/>
</svg>
