<svg width="57" height="30" viewBox="0 0 57 30" fill="none" xmlns="http://www.w3.org/2000/svg">
<rect width="57" height="30" rx="2" fill="#003580"/>
<path d="M8.32 4.216C8.90133 4.216 9.35733 4.336 9.688 4.576C10.024 4.81067 10.192 5.17867 10.192 5.68C10.192 5.984 10.1227 6.248 9.984 6.472C9.84533 6.696 9.65067 6.872 9.4 7C9.15467 7.128 8.864 7.2 8.528 7.216L8.416 6.816C8.80533 6.82667 9.15467 6.896 9.464 7.024C9.77333 7.152 10.0187 7.33067 10.2 7.56C10.3813 7.78933 10.472 8.06133 10.472 8.376C10.472 8.664 10.4187 8.912 10.312 9.12C10.2053 9.32267 10.0613 9.49067 9.88 9.624C9.69867 9.752 9.49333 9.848 9.264 9.912C9.03467 9.97067 8.79733 10 8.552 10H6.832V4.216H8.32ZM8.48 6.752C8.8 6.752 9.032 6.664 9.176 6.488C9.32 6.30667 9.392 6.088 9.392 5.832C9.392 5.528 9.29867 5.30667 9.112 5.168C8.92533 5.02933 8.67467 4.96 8.36 4.96H7.608V6.752H8.48ZM8.512 9.28C8.72533 9.28 8.92 9.248 9.096 9.184C9.27733 9.12 9.41867 9.02133 9.52 8.888C9.62667 8.75467 9.68 8.58667 9.68 8.384C9.68 8.16 9.61867 7.984 9.496 7.856C9.37867 7.728 9.22667 7.63733 9.04 7.584C8.85333 7.52533 8.66133 7.496 8.464 7.496H7.608V9.28H8.512ZM11.3053 8.312C11.3053 7.98133 11.3826 7.68267 11.5373 7.416C11.6973 7.14933 11.916 6.93867 12.1933 6.784C12.4706 6.62933 12.7853 6.552 13.1373 6.552C13.5 6.552 13.8173 6.62933 14.0893 6.784C14.3613 6.93867 14.572 7.14933 14.7213 7.416C14.8706 7.68267 14.9453 7.98133 14.9453 8.312C14.9453 8.64267 14.8706 8.944 14.7213 9.216C14.572 9.48267 14.3586 9.69333 14.0813 9.848C13.8093 10.0027 13.492 10.08 13.1293 10.08C12.7773 10.08 12.4626 10.008 12.1853 9.864C11.9133 9.71467 11.6973 9.50933 11.5373 9.248C11.3826 8.98133 11.3053 8.66933 11.3053 8.312ZM12.0493 8.32C12.0493 8.53333 12.0973 8.728 12.1933 8.904C12.2893 9.07467 12.4173 9.21067 12.5773 9.312C12.7426 9.41333 12.924 9.464 13.1213 9.464C13.3293 9.464 13.5133 9.41333 13.6733 9.312C13.8386 9.21067 13.9666 9.07467 14.0573 8.904C14.148 8.728 14.1933 8.53333 14.1933 8.32C14.1933 8.10667 14.148 7.91467 14.0573 7.744C13.9666 7.568 13.8386 7.42933 13.6733 7.328C13.5133 7.22133 13.3293 7.168 13.1213 7.168C12.9186 7.168 12.7346 7.22133 12.5693 7.328C12.4093 7.43467 12.2813 7.576 12.1853 7.752C12.0946 7.92267 12.0493 8.112 12.0493 8.32ZM15.6647 8.312C15.6647 7.98133 15.742 7.68267 15.8967 7.416C16.0567 7.14933 16.2754 6.93867 16.5527 6.784C16.83 6.62933 17.1447 6.552 17.4967 6.552C17.8594 6.552 18.1767 6.62933 18.4487 6.784C18.7207 6.93867 18.9314 7.14933 19.0807 7.416C19.23 7.68267 19.3047 7.98133 19.3047 8.312C19.3047 8.64267 19.23 8.944 19.0807 9.216C18.9314 9.48267 18.718 9.69333 18.4407 9.848C18.1687 10.0027 17.8514 10.08 17.4887 10.08C17.1367 10.08 16.822 10.008 16.5447 9.864C16.2727 9.71467 16.0567 9.50933 15.8967 9.248C15.742 8.98133 15.6647 8.66933 15.6647 8.312ZM16.4087 8.32C16.4087 8.53333 16.4567 8.728 16.5527 8.904C16.6487 9.07467 16.7767 9.21067 16.9367 9.312C17.102 9.41333 17.2834 9.464 17.4807 9.464C17.6887 9.464 17.8727 9.41333 18.0327 9.312C18.198 9.21067 18.326 9.07467 18.4167 8.904C18.5074 8.728 18.5527 8.53333 18.5527 8.32C18.5527 8.10667 18.5074 7.91467 18.4167 7.744C18.326 7.568 18.198 7.42933 18.0327 7.328C17.8727 7.22133 17.6887 7.168 17.4807 7.168C17.278 7.168 17.094 7.22133 16.9287 7.328C16.7687 7.43467 16.6407 7.576 16.5447 7.752C16.454 7.92267 16.4087 8.112 16.4087 8.32ZM20.3121 10V3.808H21.0561V10H20.3121ZM21.8561 7.8L23.3761 10H22.5041L21.3601 8.216L21.8561 7.8ZM20.8241 8.944L20.7521 8.232L22.7601 6.616L23.2161 7.008L20.8241 8.944ZM24.2964 6.688H25.0404V10H24.2964V6.688ZM24.2404 5.488C24.2404 5.37067 24.2858 5.272 24.3764 5.192C24.4724 5.112 24.5764 5.072 24.6884 5.072C24.8004 5.072 24.8991 5.112 24.9844 5.192C25.0751 5.272 25.1204 5.37067 25.1204 5.488C25.1204 5.61067 25.0751 5.712 24.9844 5.792C24.8991 5.86667 24.8004 5.904 24.6884 5.904C24.5764 5.904 24.4724 5.864 24.3764 5.784C24.2858 5.704 24.2404 5.60533 24.2404 5.488ZM26.9917 6.688L27.0557 7.496L27.0237 7.368C27.1304 7.12267 27.3037 6.928 27.5437 6.784C27.7837 6.63467 28.061 6.56 28.3757 6.56C28.6904 6.56 28.9464 6.65333 29.1437 6.84C29.3464 7.02133 29.4504 7.25867 29.4557 7.552V10H28.7037V7.816C28.6984 7.63467 28.645 7.488 28.5437 7.376C28.4477 7.25867 28.2957 7.2 28.0877 7.2C27.8957 7.2 27.7224 7.25333 27.5677 7.36C27.413 7.46667 27.2904 7.61333 27.1997 7.8C27.1144 7.98667 27.0717 8.20267 27.0717 8.448V10H26.3277V6.688H26.9917ZM32.3416 11.64C32.0962 11.64 31.8802 11.6107 31.6936 11.552C31.5069 11.4987 31.3362 11.4213 31.1816 11.32C31.0322 11.2187 30.8882 11.104 30.7496 10.976L31.1816 10.472C31.3576 10.6373 31.5362 10.7653 31.7176 10.856C31.8989 10.9467 32.1016 10.992 32.3256 10.992C32.5762 10.992 32.7869 10.9493 32.9576 10.864C33.1336 10.784 33.2669 10.6693 33.3576 10.52C33.4482 10.376 33.4936 10.208 33.4936 10.016L33.5016 9.12L33.5656 9.264C33.4696 9.49333 33.2962 9.688 33.0456 9.848C32.7949 10.0027 32.4909 10.08 32.1336 10.08C31.8296 10.08 31.5496 10.0027 31.2936 9.848C31.0429 9.69333 30.8402 9.48533 30.6856 9.224C30.5362 8.95733 30.4616 8.65867 30.4616 8.328C30.4616 7.98133 30.5416 7.67733 30.7016 7.416C30.8616 7.14933 31.0722 6.93867 31.3336 6.784C31.5949 6.62933 31.8802 6.552 32.1896 6.552C32.4829 6.552 32.7496 6.61333 32.9896 6.736C33.2349 6.85333 33.4136 7.00533 33.5256 7.192L33.4856 7.328L33.5656 6.688H34.2456V10.024C34.2456 10.3227 34.1682 10.5947 34.0136 10.84C33.8589 11.0853 33.6402 11.28 33.3576 11.424C33.0749 11.568 32.7362 11.64 32.3416 11.64ZM31.2056 8.312C31.2056 8.52533 31.2562 8.72 31.3576 8.896C31.4589 9.072 31.5949 9.21067 31.7656 9.312C31.9416 9.41333 32.1362 9.464 32.3496 9.464C32.5469 9.464 32.7229 9.42933 32.8776 9.36C33.0376 9.28533 33.1709 9.18667 33.2776 9.064C33.3842 8.936 33.4589 8.78933 33.5016 8.624V7.968C33.4536 7.808 33.3736 7.66933 33.2616 7.552C33.1496 7.42933 33.0162 7.336 32.8616 7.272C32.7069 7.20267 32.5362 7.168 32.3496 7.168C32.1362 7.168 31.9416 7.216 31.7656 7.312C31.5949 7.408 31.4589 7.544 31.3576 7.72C31.2562 7.89067 31.2056 8.088 31.2056 8.312ZM35.1548 9.576C35.1548 9.45867 35.1975 9.36 35.2828 9.28C35.3735 9.19467 35.4721 9.152 35.5788 9.152C35.6748 9.152 35.7655 9.19467 35.8508 9.28C35.9415 9.36 35.9868 9.45867 35.9868 9.576C35.9868 9.704 35.9415 9.808 35.8508 9.888C35.7655 9.96267 35.6748 10 35.5788 10C35.4721 10 35.3735 9.96267 35.2828 9.888C35.1975 9.808 35.1548 9.704 35.1548 9.576ZM39.5626 9.696C39.4132 9.81333 39.2346 9.90667 39.0266 9.976C38.8186 10.0453 38.6106 10.08 38.4026 10.08C38.0399 10.08 37.7226 10.008 37.4506 9.864C37.1786 9.72 36.9652 9.52 36.8106 9.264C36.6612 9.00267 36.5866 8.696 36.5866 8.344C36.5866 7.992 36.6666 7.68533 36.8266 7.424C36.9919 7.16267 37.2052 6.96267 37.4666 6.824C37.7332 6.68 38.0186 6.608 38.3226 6.608C38.5892 6.608 38.8266 6.64533 39.0346 6.72C39.2479 6.79467 39.4292 6.896 39.5786 7.024L39.2106 7.504C39.1146 7.42933 38.9972 7.36267 38.8586 7.304C38.7199 7.24533 38.5626 7.216 38.3866 7.216C38.1946 7.216 38.0159 7.26667 37.8506 7.368C37.6906 7.464 37.5626 7.59733 37.4666 7.768C37.3759 7.93867 37.3306 8.13067 37.3306 8.344C37.3306 8.54667 37.3786 8.736 37.4746 8.912C37.5706 9.08267 37.7039 9.21867 37.8746 9.32C38.0452 9.416 38.2399 9.464 38.4586 9.464C38.6026 9.464 38.7332 9.44267 38.8506 9.4C38.9732 9.35733 39.0826 9.29867 39.1786 9.224L39.5626 9.696ZM40.235 8.312C40.235 7.98133 40.3123 7.68267 40.467 7.416C40.627 7.14933 40.8457 6.93867 41.123 6.784C41.4003 6.62933 41.715 6.552 42.067 6.552C42.4297 6.552 42.747 6.62933 43.019 6.784C43.291 6.93867 43.5017 7.14933 43.651 7.416C43.8003 7.68267 43.875 7.98133 43.875 8.312C43.875 8.64267 43.8003 8.944 43.651 9.216C43.5017 9.48267 43.2883 9.69333 43.011 9.848C42.739 10.0027 42.4217 10.08 42.059 10.08C41.707 10.08 41.3923 10.008 41.115 9.864C40.843 9.71467 40.627 9.50933 40.467 9.248C40.3123 8.98133 40.235 8.66933 40.235 8.312ZM40.979 8.32C40.979 8.53333 41.027 8.728 41.123 8.904C41.219 9.07467 41.347 9.21067 41.507 9.312C41.6723 9.41333 41.8537 9.464 42.051 9.464C42.259 9.464 42.443 9.41333 42.603 9.312C42.7683 9.21067 42.8963 9.07467 42.987 8.904C43.0777 8.728 43.123 8.53333 43.123 8.32C43.123 8.10667 43.0777 7.91467 42.987 7.744C42.8963 7.568 42.7683 7.42933 42.603 7.328C42.443 7.22133 42.259 7.168 42.051 7.168C41.8483 7.168 41.6643 7.22133 41.499 7.328C41.339 7.43467 41.211 7.576 41.115 7.752C41.0243 7.92267 40.979 8.112 40.979 8.32ZM45.5464 6.688L45.6104 7.432L45.5784 7.368C45.701 7.11733 45.8744 6.92 46.0984 6.776C46.3277 6.632 46.589 6.56 46.8824 6.56C47.069 6.56 47.2344 6.58933 47.3784 6.648C47.5224 6.70667 47.6397 6.792 47.7304 6.904C47.8264 7.01067 47.8877 7.144 47.9144 7.304L47.8744 7.328C48.0024 7.088 48.1784 6.90133 48.4024 6.768C48.6317 6.62933 48.8717 6.56 49.1224 6.56C49.4477 6.56 49.7037 6.65333 49.8904 6.84C50.0824 7.02133 50.181 7.25867 50.1864 7.552V10H49.4424V7.816C49.437 7.64533 49.3944 7.504 49.3144 7.392C49.2397 7.27467 49.1064 7.21067 48.9144 7.2C48.7224 7.2 48.549 7.25867 48.3944 7.376C48.245 7.49333 48.1277 7.64533 48.0424 7.832C47.957 8.01333 47.9117 8.21067 47.9064 8.424V10H47.1624V7.816C47.157 7.64533 47.1117 7.504 47.0264 7.392C46.9464 7.27467 46.8104 7.21067 46.6184 7.2C46.421 7.2 46.2477 7.25867 46.0984 7.376C45.949 7.49333 45.8317 7.64533 45.7464 7.832C45.6664 8.01867 45.6264 8.21867 45.6264 8.432V10H44.8824V6.688H45.5464Z" fill="white"/>
<path d="M20.888 18.272C20.616 18.272 20.36 18.2 20.12 18.056C19.88 17.912 19.6827 17.7147 19.528 17.464C19.3787 17.208 19.304 16.92 19.304 16.6C19.304 16.2267 19.3893 15.904 19.56 15.632C19.736 15.3547 19.9627 15.1413 20.24 14.992C20.5173 14.8427 20.816 14.768 21.136 14.768C21.4933 14.768 21.8133 14.8453 22.096 15C22.384 15.1547 22.6107 15.3707 22.776 15.648C22.9467 15.9253 23.032 16.2453 23.032 16.608C23.032 17.024 22.952 17.4027 22.792 17.744C22.6373 18.0853 22.432 18.3973 22.176 18.68C21.92 18.9573 21.6373 19.2133 21.328 19.448C21.0187 19.6773 20.7093 19.896 20.4 20.104L19.888 19.536C20.3307 19.3067 20.7147 19.0667 21.04 18.816C21.3653 18.5653 21.6213 18.3147 21.808 18.064C21.9947 17.808 22.104 17.568 22.136 17.344L22.36 17.352C22.2 17.6507 22.008 17.88 21.784 18.04C21.5653 18.1947 21.2667 18.272 20.888 18.272ZM21.168 17.616C21.4827 17.616 21.7387 17.5253 21.936 17.344C22.1387 17.1627 22.24 16.928 22.24 16.64V16.496C22.2347 16.2987 22.184 16.1227 22.088 15.968C21.992 15.8133 21.864 15.6907 21.704 15.6C21.544 15.5093 21.3653 15.464 21.168 15.464C20.9707 15.464 20.7893 15.5093 20.624 15.6C20.464 15.6907 20.336 15.8187 20.24 15.984C20.1493 16.144 20.104 16.3333 20.104 16.552C20.104 16.7653 20.152 16.9547 20.248 17.12C20.344 17.28 20.472 17.4027 20.632 17.488C20.792 17.5733 20.9707 17.616 21.168 17.616ZM23.8889 19.576C23.8889 19.4587 23.9315 19.36 24.0169 19.28C24.1075 19.1947 24.2062 19.152 24.3129 19.152C24.4089 19.152 24.4995 19.1947 24.5849 19.28C24.6755 19.36 24.7209 19.4587 24.7209 19.576C24.7209 19.704 24.6755 19.808 24.5849 19.888C24.4995 19.9627 24.4089 20 24.3129 20C24.2062 20 24.1075 19.9627 24.0169 19.888C23.9315 19.808 23.8889 19.704 23.8889 19.576ZM28.9686 14.736L26.8646 20H25.9926L27.8886 15.368L28.1606 15.48H25.5286V14.736H28.9686Z" fill="white"/>
<path d="M35.3098 14.5854C35.3697 14.4011 35.6303 14.4011 35.6902 14.5854L36.2409 16.2802C36.2677 16.3626 36.3445 16.4184 36.4311 16.4184H38.2132C38.4069 16.4184 38.4875 16.6664 38.3307 16.7802L36.889 17.8277C36.8189 17.8786 36.7896 17.9689 36.8164 18.0513L37.367 19.7461C37.4269 19.9304 37.216 20.0836 37.0593 19.9698L35.6176 18.9223C35.5475 18.8714 35.4525 18.8714 35.3824 18.9223L33.9407 19.9698C33.784 20.0836 33.5731 19.9304 33.633 19.7461L34.1836 18.0513C34.2104 17.9689 34.1811 17.8786 34.111 17.8277L32.6693 16.7802C32.5125 16.6664 32.5931 16.4184 32.7868 16.4184H34.5689C34.6555 16.4184 34.7323 16.3626 34.7591 16.2802L35.3098 14.5854Z" fill="#FFEB3B"/>
<path d="M19.212 23.368H19.9V26H19.512V23.74H19.212V23.368ZM21.4564 26.032C21.3151 26.032 21.1791 26.0067 21.0484 25.956C20.9204 25.9053 20.8164 25.84 20.7364 25.76L20.9444 25.46C20.9977 25.5213 21.0684 25.5707 21.1564 25.608C21.2471 25.6453 21.3364 25.664 21.4244 25.664C21.5231 25.664 21.6097 25.6427 21.6844 25.6C21.7617 25.5547 21.8217 25.4947 21.8644 25.42C21.9071 25.3427 21.9284 25.2547 21.9284 25.156C21.9284 25.0493 21.9084 24.9547 21.8684 24.872C21.8311 24.7893 21.7737 24.7253 21.6964 24.68C21.6217 24.632 21.5271 24.608 21.4124 24.608C21.3191 24.608 21.2324 24.6213 21.1524 24.648C21.0724 24.672 20.9897 24.7093 20.9044 24.76H20.9004V23.368H22.1604V23.74H21.2364V24.412L21.1844 24.332C21.2297 24.316 21.2804 24.304 21.3364 24.296C21.3951 24.2853 21.4511 24.28 21.5044 24.28C21.6831 24.28 21.8324 24.32 21.9524 24.4C22.0751 24.4773 22.1671 24.5813 22.2284 24.712C22.2924 24.8427 22.3244 24.9867 22.3244 25.144C22.3244 25.3093 22.2871 25.46 22.2124 25.596C22.1377 25.7293 22.0351 25.836 21.9044 25.916C21.7737 25.9933 21.6244 26.032 21.4564 26.032ZM24.8118 24.344L24.8478 24.824L24.8278 24.76C24.8704 24.6587 24.9318 24.5733 25.0118 24.504C25.0944 24.432 25.1798 24.3773 25.2678 24.34C25.3584 24.3 25.4371 24.28 25.5038 24.28L25.4838 24.648C25.3584 24.64 25.2478 24.664 25.1518 24.72C25.0584 24.776 24.9838 24.8507 24.9278 24.944C24.8744 25.0373 24.8478 25.1373 24.8478 25.244V26H24.4798V24.344H24.8118ZM26.8414 26.04C26.652 26.04 26.4894 26.0027 26.3534 25.928C26.2174 25.8507 26.112 25.7467 26.0374 25.616C25.9654 25.4827 25.9294 25.3307 25.9294 25.16C25.9294 24.9973 25.9707 24.8493 26.0534 24.716C26.136 24.5827 26.2467 24.476 26.3854 24.396C26.524 24.316 26.6787 24.276 26.8494 24.276C27.068 24.276 27.2494 24.34 27.3934 24.468C27.5374 24.596 27.6347 24.772 27.6854 24.996L26.3214 25.476L26.2334 25.256L27.3534 24.848L27.2734 24.9C27.2414 24.812 27.188 24.736 27.1134 24.672C27.0387 24.6053 26.9414 24.572 26.8214 24.572C26.72 24.572 26.6294 24.5973 26.5494 24.648C26.4694 24.696 26.4067 24.7627 26.3614 24.848C26.316 24.9333 26.2934 25.0307 26.2934 25.14C26.2934 25.2547 26.3174 25.356 26.3654 25.444C26.4134 25.5293 26.4787 25.5973 26.5614 25.648C26.6467 25.696 26.7427 25.72 26.8494 25.72C26.9214 25.72 26.9907 25.7067 27.0574 25.68C27.1267 25.6533 27.1907 25.6187 27.2494 25.576L27.4214 25.852C27.3387 25.908 27.2454 25.9533 27.1414 25.988C27.04 26.0227 26.94 26.04 26.8414 26.04ZM28.9249 26.048L28.0049 24.344H28.4449L29.0689 25.66L28.8409 25.652L29.4129 24.344H29.8289L28.9449 26.048H28.9249ZM30.3895 24.344H30.7615V26H30.3895V24.344ZM30.3615 23.744C30.3615 23.6853 30.3841 23.636 30.4295 23.596C30.4775 23.556 30.5295 23.536 30.5855 23.536C30.6415 23.536 30.6908 23.556 30.7335 23.596C30.7788 23.636 30.8015 23.6853 30.8015 23.744C30.8015 23.8053 30.7788 23.856 30.7335 23.896C30.6908 23.9333 30.6415 23.952 30.5855 23.952C30.5295 23.952 30.4775 23.932 30.4295 23.892C30.3841 23.852 30.3615 23.8027 30.3615 23.744ZM32.3331 26.04C32.1438 26.04 31.9811 26.0027 31.8451 25.928C31.7091 25.8507 31.6038 25.7467 31.5291 25.616C31.4571 25.4827 31.4211 25.3307 31.4211 25.16C31.4211 24.9973 31.4624 24.8493 31.5451 24.716C31.6278 24.5827 31.7384 24.476 31.8771 24.396C32.0158 24.316 32.1704 24.276 32.3411 24.276C32.5598 24.276 32.7411 24.34 32.8851 24.468C33.0291 24.596 33.1264 24.772 33.1771 24.996L31.8131 25.476L31.7251 25.256L32.8451 24.848L32.7651 24.9C32.7331 24.812 32.6798 24.736 32.6051 24.672C32.5304 24.6053 32.4331 24.572 32.3131 24.572C32.2118 24.572 32.1211 24.5973 32.0411 24.648C31.9611 24.696 31.8984 24.7627 31.8531 24.848C31.8078 24.9333 31.7851 25.0307 31.7851 25.14C31.7851 25.2547 31.8091 25.356 31.8571 25.444C31.9051 25.5293 31.9704 25.5973 32.0531 25.648C32.1384 25.696 32.2344 25.72 32.3411 25.72C32.4131 25.72 32.4824 25.7067 32.5491 25.68C32.6184 25.6533 32.6824 25.6187 32.7411 25.576L32.9131 25.852C32.8304 25.908 32.7371 25.9533 32.6331 25.988C32.5318 26.0227 32.4318 26.04 32.3331 26.04ZM34.8163 24.344L35.3043 25.46L35.2323 25.468L35.6883 24.344H36.0523L35.2923 26.1L34.7603 24.964L34.2763 26.1L33.5083 24.344H33.8723L34.3883 25.512L34.2603 25.488L34.6283 24.632L34.4963 24.344H34.8163ZM37.0757 26.032C36.9583 26.032 36.8437 26.012 36.7317 25.972C36.6223 25.9293 36.5317 25.8667 36.4597 25.784L36.6157 25.568C36.685 25.6347 36.7557 25.6853 36.8277 25.72C36.9023 25.752 36.9757 25.768 37.0477 25.768C37.101 25.768 37.1503 25.7613 37.1957 25.748C37.241 25.7347 37.277 25.7133 37.3037 25.684C37.333 25.652 37.3477 25.6093 37.3477 25.556C37.3477 25.4973 37.3277 25.4507 37.2877 25.416C37.2503 25.3813 37.201 25.3533 37.1397 25.332C37.081 25.3107 37.0183 25.2907 36.9517 25.272C36.8157 25.2267 36.7117 25.164 36.6397 25.084C36.5677 25.004 36.5317 24.9067 36.5317 24.792C36.5317 24.704 36.553 24.6227 36.5957 24.548C36.641 24.4707 36.7063 24.408 36.7917 24.36C36.8797 24.312 36.9877 24.288 37.1157 24.288C37.2303 24.288 37.333 24.3027 37.4237 24.332C37.5143 24.3587 37.5997 24.404 37.6797 24.468L37.5317 24.7C37.4837 24.6493 37.4263 24.612 37.3597 24.588C37.293 24.564 37.233 24.5507 37.1797 24.548C37.1343 24.5453 37.0903 24.552 37.0477 24.568C37.0077 24.584 36.9743 24.6067 36.9477 24.636C36.921 24.6653 36.9077 24.7 36.9077 24.74C36.9077 24.796 36.9263 24.8413 36.9637 24.876C37.001 24.9107 37.049 24.9387 37.1077 24.96C37.169 24.9787 37.229 24.9987 37.2877 25.02C37.3703 25.044 37.4437 25.076 37.5077 25.116C37.5717 25.156 37.6223 25.2053 37.6597 25.264C37.6997 25.3227 37.7197 25.396 37.7197 25.484C37.7197 25.5827 37.6957 25.6747 37.6477 25.76C37.6023 25.8427 37.5317 25.9093 37.4357 25.96C37.3423 26.008 37.2223 26.032 37.0757 26.032Z" fill="white"/>
<path d="M19 26.5H25.8198V26.7H19V26.5ZM25.7494 26.5H27.9894V26.7H25.7494V26.5ZM27.9289 26.5H31.2415V26.7H27.9289V26.5ZM31.2411 26.5H33.4811V26.7H31.2411V26.5ZM33.4323 26.5H36.2883V26.7H33.4323V26.5ZM36.2877 26.5H37.9157V26.7H36.2877V26.5Z" fill="white"/>
</svg>
