<svg width="100" height="100" viewBox="0 0 100 100" fill="none" xmlns="http://www.w3.org/2000/svg">
<circle cx="50" cy="50" r="50" transform="matrix(-1 0 0 1 100 0)" fill="black" fill-opacity="0.7"/>
<path d="M52.6762 52.2736C54.2307 50.7395 54.2307 48.2482 52.6762 46.7141L28.7993 23.1506C27.2448 21.6165 24.7203 21.6165 23.1658 23.1506C21.6113 24.6846 21.6113 27.176 23.1658 28.7101L44.2322 49.5L23.1782 70.2899C21.6237 71.824 21.6237 74.3154 23.1782 75.8494C24.7327 77.3835 27.2572 77.3835 28.8117 75.8494L52.6886 52.2859L52.6762 52.2736Z" fill="#B39F9F"/>
<path d="M46.3238 52.2736C44.7693 50.7395 44.7693 48.2482 46.3238 46.7141L70.2007 23.1506C71.7552 21.6165 74.2797 21.6165 75.8342 23.1506C77.3887 24.6846 77.3887 27.176 75.8342 28.7101L54.7678 49.5L75.8218 70.2899C77.3763 71.824 77.3763 74.3154 75.8218 75.8494C74.2673 77.3835 71.7428 77.3835 70.1883 75.8494L46.3114 52.2859L46.3238 52.2736Z" fill="#B39F9F"/>
</svg>
